<?xml version="1.0" encoding="UTF-8" standalone="no"?>
<!-- Created with Inkscape (http://www.inkscape.org/) -->

<svg
   width="210mm"
   height="297mm"
   viewBox="0 0 210 297"
   version="1.1"
   id="svg5"
   inkscape:version="1.1.2 (0a00cf5339, 2022-02-04)"
   sodipodi:docname="dvd.svg"
   xmlns:inkscape="http://www.inkscape.org/namespaces/inkscape"
   xmlns:sodipodi="http://sodipodi.sourceforge.net/DTD/sodipodi-0.dtd"
   xmlns="http://www.w3.org/2000/svg"
   xmlns:svg="http://www.w3.org/2000/svg">
  <sodipodi:namedview
     id="namedview7"
     pagecolor="#ffffff"
     bordercolor="#666666"
     borderopacity="1.0"
     inkscape:pageshadow="2"
     inkscape:pageopacity="0.0"
     inkscape:pagecheckerboard="0"
     inkscape:document-units="mm"
     showgrid="false"
     inkscape:zoom="0.46235269"
     inkscape:cx="227.09936"
     inkscape:cy="341.73046"
     inkscape:window-width="1366"
     inkscape:window-height="695"
     inkscape:window-x="0"
     inkscape:window-y="0"
     inkscape:window-maximized="1"
     inkscape:current-layer="layer1" />
  <defs
     id="defs2" />
  <g
     inkscape:label="Capa 1"
     inkscape:groupmode="layer"
     id="layer1">
    <path
       style="fill:#ffffff;stroke-width:0.264583"
       d="m -7.792258,19.431944 c -28.51589,-0.76095 -50.059098,-3.76618 -56.600595,-7.89564 -6.234303,-3.9355501 3.290953,-8.0534701 24.453725,-10.57174006 9.42699,-1.12177 21.96375,-1.95832 30.42708,-2.03034004 2.03729,-0.0173 3.78498,-0.0809 3.88376,-0.14123 0.0988,-0.0603 -0.21662,-1.26877 -0.70088,-2.68542 -0.48426,-1.41664 -2.6653,-7.8144599 -4.84675,-14.2173799 -6.48595,-19.037311 -5.95739,-17.619993 -6.40431,-17.173067 -0.16249,0.162486 -0.005,0.96729 0.43617,2.231318 0.57486,1.646447 0.68568,2.410325 0.66256,4.566772 -0.0382,3.565062 -0.86637,5.835888 -3.30264,9.055954 -1.93049,2.551573 -5.5452,5.434393 -9.02696,7.199203 -2.48581,1.25999 -6.73706,2.7094699 -9.99988,3.4094799 -3.16773,0.67961 -3.5302,0.69921 -15.256496,0.82507 -11.628783,0.1248 -12.005239,0.11324 -11.809821,-0.3627 0.206372,-0.50262 1.719074,-6.7440999 4.175063,-17.2265099 l 1.379297,-5.886979 h 6.850861 c 5.436145,0 6.799815,0.0683 6.603645,0.33073 -0.13597,0.181901 -0.38725,0.926041 -0.5584,1.653645 -0.17116,0.727604 -0.77526,3.287448 -1.34246,5.688542 -0.56719,2.401093 -1.17966,5.020472 -1.36103,5.820832 -0.18138,0.80037 -0.4373,1.66357 -0.56871,1.91823 -0.21444,0.41557 -0.0821,0.46211 1.29173,0.45411 7.431251,-0.0433 12.629321,-1.63983 15.831131,-4.862494 1.72415,-1.735386 2.52632,-3.179847 2.99717,-5.397011 0.75197,-3.540847 -0.83744,-6.310359 -4.58961,-7.997316 -2.58499,-1.162204 -4.29006,-1.313434 -14.808521,-1.313434 -9.159826,0 -9.719388,-0.02714 -9.547702,-0.463021 0.186187,-0.472702 1.269057,-4.796014 1.5905,-6.35 l 0.177869,-0.859895 1.831061,-0.0031 c 1.007083,-0.0016 11.534652,-0.0031 23.394603,-0.0031 11.85995,0 22.51145,0.0013 23.67001,0.0031 l 2.10647,0.0031 0.29523,1.124479 c 0.16237,0.618463 0.87221,2.910416 1.57742,5.093229 0.7052,2.182812 2.13241,6.647656 3.17158,9.921874 1.03915995,3.274219 1.94371995,6.118119 2.01012995,6.319776 0.0679,0.206325 3.83740005,-4.595058 8.62031005,-10.980207 4.67477,-6.240772 8.52482,-11.379454 8.55567,-11.419292 0.0309,-0.03984 7.48475,-0.06987 16.56422,-0.06673 17.231229,0.006 18.500829,0.07498 22.450899,1.220533 8.81165,2.55546 13.61591,8.517654 12.4471,15.447123 -0.53799,3.189568 -2.01879,5.77351 -5.00827,8.739206 -5.16502,5.12394 -12.63218,8.3478399 -21.413289,9.2450399 -1.507,0.15398 -7.31231,0.27996 -12.90068,0.27996 -9.59566,0 -10.14676,-0.0257 -9.91069,-0.46302 0.13748,-0.25466 0.79014,-2.7847399 1.45036,-5.6223899 0.66021,-2.83766 1.79889,-7.683552 2.53039,-10.768651 0.73151,-3.085098 1.33001,-5.853301 1.33001,-6.151563 0,-0.532791 0.12077,-0.54229 6.89478,-0.54229 4.27846,0 6.83594,0.09521 6.73972,0.250899 -0.24965,0.403937 -3.80628,15.480235 -3.682,15.607715 0.0622,0.0637 1.98995,-0.0207 4.284,-0.18772 6.13906,-0.44688 9.602219,-1.67526 12.642819,-4.484396 2.09879,-1.93902 3.28282,-4.464317 3.28305,-7.002086 2.9e-4,-3.278455 -1.81183,-5.527066 -5.55612,-6.894449 -2.3381,-0.853858 -4.317979,-0.994129 -14.031579,-0.994129 h -9.70107 l -3.14878,3.619058 c -1.73183,1.990481 -4.10128,4.704992 -5.26544,6.032246 -1.16417,1.327253 -2.78685,3.181254 -3.60596,4.120004 -0.8191,0.938749 -2.84317,3.242612 -4.49791,5.119702 -1.65475,1.87708 -3.36582,3.84134 -3.80238,4.36501 -0.43656,0.52367 -2.67533,3.0955299 -4.97504005,5.7152499 l -4.18128995,4.7631 8.94379,0.18121 c 31.19349,0.63202004 53.229429,3.31548 61.014149,7.43009 3.75113,1.98266 3.7041,4.0735501 -0.13386,5.9515801 -6.86249,3.35801 -23.385549,5.90412 -44.925039,6.92269 -6.02375,0.28485 -23.9872,0.52398 -29.10417,0.38743 z m 18.29437,-7.60129 c 4.51465,-0.86069 6.63877,-1.8427901 6.79052,-3.1396401 0.069,-0.58926 -0.11624,-0.81479 -1.18176,-1.43922 -2.66166,-1.55984 -11.26596,-2.72243 -17.42084,-2.35387 -9.40305,0.56307 -14.63769,2.5001 -12.66048,4.68489 0.92855,1.0260401 4.64274,2.1110201 8.82794,2.5788001 3.16684,0.35396 13.16096,0.14253 15.64462,-0.33096 z"
       id="path836"
       inkscape:export-filename="/home/eduardo/Documentos/dvdanimation/images/dvd_whte.png"
       inkscape:export-xdpi="500"
       inkscape:export-ydpi="500" />
    <path
       style="fill:#00ffff;stroke-width:0.264583"
       d="m 180.73246,22.541702 c -28.51589,-0.76095 -50.05909,-3.76618 -56.60059,-7.89564 -6.2343,-3.93555 3.29095,-8.0534698 24.45372,-10.5717398 9.42699,-1.12177 21.96375,-1.95832 30.42708,-2.03034 2.03729,-0.0173 3.78498,-0.0809 3.88376,-0.14123 0.0988,-0.0603 -0.21662,-1.26876995 -0.70088,-2.68541995 -0.48426,-1.41664005 -2.6653,-7.81446005 -4.84675,-14.21738025 -6.48595,-19.037311 -5.95739,-17.619993 -6.40431,-17.173067 -0.16249,0.162486 -0.005,0.96729 0.43617,2.231318 0.57486,1.646447 0.68568,2.410325 0.66256,4.566772 -0.0382,3.565062 -0.86637,5.835888 -3.30264,9.055954 -1.93049,2.551573 -5.5452,5.434393 -9.02696,7.1992032 -2.48581,1.25999 -6.73706,2.70947 -9.99988,3.40948 -3.16773,0.67961 -3.5302,0.69921 -15.25649,0.82507 -11.62878,0.1248 -12.00524,0.11324 -11.80982,-0.3627 0.20637,-0.50262 1.71907,-6.7441002 4.17506,-17.2265102 l 1.3793,-5.886979 h 6.85086 c 5.43614,0 6.79981,0.0683 6.60364,0.33073 -0.13597,0.181901 -0.38725,0.926041 -0.5584,1.653645 -0.17116,0.727604 -0.77526,3.287448 -1.34246,5.688542 -0.56719,2.401093 -1.17966,5.020472 -1.36103,5.820832 -0.18138,0.80037 -0.4373,1.66357 -0.56871,1.91823 -0.21444,0.41557 -0.0821,0.46211 1.29173,0.45411 7.43125,-0.0433 12.62932,-1.63983 15.83113,-4.862494 1.72415,-1.735386 2.52632,-3.179847 2.99717,-5.397011 0.75197,-3.540847 -0.83744,-6.310359 -4.58961,-7.997316 -2.58499,-1.162204 -4.29006,-1.313434 -14.80852,-1.313434 -9.15982,0 -9.71938,-0.02714 -9.5477,-0.463021 0.18619,-0.472702 1.26906,-4.796014 1.5905,-6.35 l 0.17787,-0.859895 1.83106,-0.0031 c 1.00708,-0.0016 11.53465,-0.0031 23.3946,-0.0031 11.85995,0 22.51145,0.0013 23.67001,0.0031 l 2.10647,0.0031 0.29523,1.124479 c 0.16237,0.618463 0.87221,2.910416 1.57742,5.093229 0.7052,2.182812 2.13241,6.647656 3.17158,9.921874 1.03916,3.274219 1.94372,6.118119 2.01013,6.319776 0.0679,0.206325 3.8374,-4.595058 8.62031,-10.980207 4.67477,-6.240772 8.52482,-11.379454 8.55567,-11.419292 0.0309,-0.03984 7.48475,-0.06987 16.56422,-0.06673 17.23123,0.006 18.50083,0.07498 22.4509,1.220533 8.81165,2.55546 13.61591,8.517654 12.4471,15.447123 -0.53799,3.189568 -2.01879,5.77351 -5.00827,8.739206 -5.16502,5.1239402 -12.63218,8.3478402 -21.41329,9.2450402 -1.507,0.15398 -7.31231,0.27996 -12.90068,0.27996 -9.59566,0 -10.14676,-0.0257 -9.91069,-0.46302 0.13748,-0.25466 0.79014,-2.78474 1.45036,-5.6223902 0.66021,-2.83766 1.79889,-7.683552 2.53039,-10.768651 0.73151,-3.085098 1.33001,-5.853301 1.33001,-6.151563 0,-0.532791 0.12077,-0.54229 6.89478,-0.54229 4.27846,0 6.83594,0.09521 6.73972,0.250899 -0.24965,0.403937 -3.80628,15.480235 -3.682,15.607715 0.0622,0.0637 1.98995,-0.0207 4.284,-0.18772 6.13906,-0.44688 9.60222,-1.67526 12.64282,-4.484396 2.09879,-1.93902 3.28282,-4.464317 3.28305,-7.002086 2.9e-4,-3.278455 -1.81183,-5.527066 -5.55612,-6.894449 -2.3381,-0.853858 -4.31798,-0.994129 -14.03158,-0.994129 h -9.70107 l -3.14878,3.619058 c -1.73183,1.990481 -4.10128,4.704992 -5.26544,6.032246 -1.16417,1.327253 -2.78685,3.181254 -3.60596,4.120004 -0.8191,0.938749 -2.84317,3.242612 -4.49791,5.119702 -1.65475,1.87708 -3.36582,3.8413402 -3.80238,4.3650102 -0.43656,0.52367 -2.67533,3.09553 -4.97504,5.71525 l -4.18129,4.7631 8.94379,0.18121 c 31.19349,0.63202 53.22943,3.31548 61.01415,7.43009 3.75113,1.9826598 3.7041,4.0735498 -0.13386,5.9515798 -6.86249,3.35801 -23.38555,5.90412 -44.92504,6.92269 -6.02375,0.28485 -23.9872,0.52398 -29.10417,0.38743 z m 18.29437,-7.60129 c 4.51465,-0.86069 6.63877,-1.84279 6.79052,-3.13964 0.069,-0.58926 -0.11624,-0.81479 -1.18176,-1.43922 -2.66166,-1.5598398 -11.26596,-2.7224298 -17.42084,-2.3538698 -9.40305,0.56307 -14.63769,2.5000998 -12.66048,4.6848898 0.92855,1.02604 4.64274,2.11102 8.82794,2.5788 3.16684,0.35396 13.16096,0.14253 15.64462,-0.33096 z"
       id="path836-3"
       inkscape:export-filename="/home/eduardo/Documentos/dvdanimation/images/dvd_cyan.png"
       inkscape:export-xdpi="500"
       inkscape:export-ydpi="500" />
    <path
       style="fill:#ff00ff;stroke-width:0.264583"
       d="m -23.284173,116.45029 c -28.51589,-0.76095 -50.059098,-3.76618 -56.600595,-7.89564 -6.234303,-3.93555 3.290953,-8.05347 24.453725,-10.571737 9.42699,-1.12177 21.96375,-1.95832 30.42708,-2.03034 2.03729,-0.0173 3.78498,-0.0809 3.88376,-0.14123 0.0988,-0.0603 -0.21662,-1.26877 -0.70088,-2.68542 -0.48426,-1.41664 -2.6653,-7.81446 -4.84675,-14.21738 -6.48595,-19.037311 -5.95739,-17.619993 -6.40431,-17.173067 -0.16249,0.162486 -0.005,0.96729 0.43617,2.231318 0.57486,1.646447 0.68568,2.410325 0.66256,4.566772 -0.0382,3.565062 -0.86637,5.835888 -3.30264,9.055954 -1.93049,2.551573 -5.5452,5.434393 -9.02696,7.199203 -2.48581,1.25999 -6.73706,2.70947 -9.99988,3.40948 -3.16773,0.67961 -3.5302,0.69921 -15.256496,0.82507 -11.628783,0.1248 -12.005239,0.11324 -11.809821,-0.3627 0.206372,-0.50262 1.719074,-6.7441 4.175063,-17.22651 l 1.379297,-5.886979 h 6.850861 c 5.436145,0 6.799815,0.0683 6.603645,0.33073 -0.13597,0.181901 -0.38725,0.926041 -0.5584,1.653645 -0.17116,0.727604 -0.77526,3.287448 -1.34246,5.688542 -0.56719,2.401093 -1.17966,5.020472 -1.36103,5.820832 -0.18138,0.80037 -0.4373,1.66357 -0.56871,1.91823 -0.21444,0.41557 -0.0821,0.46211 1.29173,0.45411 7.431251,-0.0433 12.629321,-1.63983 15.831131,-4.862494 1.72415,-1.735386 2.52632,-3.179847 2.99717,-5.397011 0.75197,-3.540847 -0.83744,-6.310359 -4.58961,-7.997316 -2.58499,-1.162204 -4.29006,-1.313434 -14.808521,-1.313434 -9.159826,0 -9.719388,-0.02714 -9.547702,-0.463021 0.186187,-0.472702 1.269057,-4.796014 1.5905,-6.35 l 0.177869,-0.859895 1.831061,-0.0031 c 1.007083,-0.0016 11.534652,-0.0031 23.394603,-0.0031 11.85995,0 22.51145,0.0013 23.67001,0.0031 l 2.10647,0.0031 0.29523,1.124479 c 0.16237,0.618463 0.87221,2.910416 1.57742,5.093229 0.7052,2.182812 2.13241,6.647656 3.17158,9.921874 1.03916,3.274219 1.94372,6.118119 2.01013,6.319776 0.0679,0.206325 3.8374,-4.595058 8.6203102,-10.980207 4.67477,-6.240772 8.52482,-11.379454 8.55567,-11.419292 0.0309,-0.03984 7.48475,-0.06987 16.5642198,-0.06673 17.231229,0.006 18.500829,0.07498 22.450899,1.220533 8.81165,2.55546 13.61591,8.517654 12.4471,15.447123 -0.53799,3.189568 -2.01879,5.77351 -5.00827,8.739206 -5.16502,5.12394 -12.63218,8.34784 -21.413289,9.24504 -1.507,0.15398 -7.31231,0.27996 -12.90068,0.27996 -9.5956598,0 -10.1467598,-0.0257 -9.9106898,-0.46302 0.13748,-0.25466 0.79014,-2.78474 1.45036,-5.62239 0.66021,-2.83766 1.79889,-7.683552 2.53039,-10.768651 0.73151,-3.085098 1.33001,-5.853301 1.33001,-6.151563 0,-0.532791 0.12077,-0.54229 6.8947798,-0.54229 4.27846,0 6.83594,0.09521 6.73972,0.250899 -0.24965,0.403937 -3.80628,15.480235 -3.682,15.607715 0.0622,0.0637 1.98995,-0.0207 4.284,-0.18772 6.13906,-0.44688 9.602219,-1.67526 12.642819,-4.484396 2.09879,-1.93902 3.28282,-4.464317 3.28305,-7.002086 2.9e-4,-3.278455 -1.81183,-5.527066 -5.55612,-6.894449 -2.3381,-0.853858 -4.317979,-0.994129 -14.031579,-0.994129 h -9.70107 l -3.1487798,3.619058 c -1.73183,1.990481 -4.10128,4.704992 -5.26544,6.032246 -1.16417003,1.327253 -2.78685003,3.181254 -3.60596,4.120004 -0.8191,0.938749 -2.84317,3.242612 -4.49791,5.119702 -1.65475,1.87708 -3.36582,3.84134 -3.80238,4.36501 -0.4365602,0.52367 -2.6753302,3.09553 -4.9750402,5.71525 l -4.18129,4.7631 8.94379,0.18121 c 31.19349,0.63202 53.229429,3.31548 61.014149,7.430087 3.75113,1.98266 3.7041,4.07355 -0.13386,5.95158 -6.86249,3.35801 -23.385549,5.90412 -44.9250388,6.92269 -6.02375003,0.28485 -23.9872002,0.52398 -29.1041702,0.38743 z M -4.9898028,108.849 c 4.51464997,-0.86069 6.63877,-1.84279 6.79052,-3.13964 0.069,-0.58926 -0.11624,-0.81479 -1.18176003,-1.43922 -2.66165997,-1.55984 -11.26596017,-2.72243 -17.42084017,-2.35387 -9.40305,0.56307 -14.63769,2.5001 -12.66048,4.68489 0.92855,1.02604 4.64274,2.11102 8.82794,2.5788 3.16684,0.35396 13.1609602,0.14253 15.6446202,-0.33096 z"
       id="path836-6"
       inkscape:export-filename="/home/eduardo/Documentos/dvdanimation/images/dvd_magenta.png"
       inkscape:export-xdpi="500"
       inkscape:export-ydpi="500" />
    <path
       style="fill:#ffff00;stroke-width:0.264583"
       d="m 168.6511,126.2431 c -28.51589,-0.76095 -50.05909,-3.76618 -56.60059,-7.89564 -6.2343,-3.93555 3.29095,-8.05347 24.45372,-10.57174 9.42699,-1.12177 21.96375,-1.95832 30.42708,-2.03034 2.03729,-0.0173 3.78498,-0.0809 3.88376,-0.14123 0.0988,-0.0603 -0.21662,-1.26877 -0.70088,-2.68542 -0.48426,-1.41664 -2.6653,-7.814454 -4.84675,-14.217374 -6.48595,-19.037311 -5.95739,-17.619993 -6.40431,-17.173067 -0.16249,0.162486 -0.005,0.96729 0.43617,2.231318 0.57486,1.646447 0.68568,2.410325 0.66256,4.566772 -0.0382,3.565062 -0.86637,5.835888 -3.30264,9.055954 -1.93049,2.551573 -5.5452,5.434393 -9.02696,7.199203 -2.48581,1.25999 -6.73706,2.70947 -9.99988,3.40948 -3.16773,0.67961 -3.5302,0.69921 -15.25649,0.82507 -11.62878,0.1248 -12.00524,0.11324 -11.80982,-0.3627 0.20637,-0.50262 1.71907,-6.7441 4.17506,-17.22651 l 1.3793,-5.886979 h 6.85086 c 5.43614,0 6.79981,0.0683 6.60364,0.33073 -0.13597,0.181901 -0.38725,0.926041 -0.5584,1.653645 -0.17116,0.727604 -0.77526,3.287448 -1.34246,5.688542 -0.56719,2.401093 -1.17966,5.020472 -1.36103,5.820832 -0.18138,0.80037 -0.4373,1.66357 -0.56871,1.91823 -0.21444,0.41557 -0.0821,0.46211 1.29173,0.45411 7.43125,-0.0433 12.62932,-1.63983 15.83113,-4.862494 1.72415,-1.735386 2.52632,-3.179847 2.99717,-5.397011 0.75197,-3.540847 -0.83744,-6.310359 -4.58961,-7.997316 -2.58499,-1.162204 -4.29006,-1.313434 -14.80852,-1.313434 -9.15982,0 -9.71938,-0.02714 -9.5477,-0.463021 0.18619,-0.472702 1.26906,-4.796014 1.5905,-6.35 l 0.17787,-0.859895 1.83106,-0.0031 c 1.00709,-0.0016 11.53465,-0.0031 23.3946,-0.0031 11.85995,0 22.51145,0.0013 23.67001,0.0031 l 2.10647,0.0031 0.29523,1.124479 c 0.16237,0.618463 0.87221,2.910416 1.57742,5.093229 0.7052,2.182812 2.13241,6.647656 3.17158,9.921874 1.03916,3.274219 1.94372,6.118119 2.01013,6.319776 0.0679,0.206325 3.8374,-4.595058 8.62031,-10.980207 4.67477,-6.240772 8.52482,-11.379454 8.55567,-11.419292 0.0309,-0.03984 7.48475,-0.06987 16.56422,-0.06673 17.23123,0.006 18.50083,0.07498 22.4509,1.220533 8.81165,2.55546 13.61591,8.517654 12.4471,15.447123 -0.53799,3.189568 -2.01879,5.77351 -5.00827,8.739206 -5.16502,5.12394 -12.63218,8.34784 -21.41329,9.24504 -1.507,0.15398 -7.31231,0.27996 -12.90068,0.27996 -9.59566,0 -10.14676,-0.0257 -9.91069,-0.46302 0.13748,-0.25466 0.79014,-2.78474 1.45036,-5.62239 0.66021,-2.83766 1.79889,-7.683552 2.53039,-10.768651 0.73151,-3.085098 1.33001,-5.853301 1.33001,-6.151563 0,-0.532791 0.12077,-0.54229 6.89478,-0.54229 4.27846,0 6.83594,0.09521 6.73972,0.250899 -0.24965,0.403937 -3.80628,15.480235 -3.682,15.607715 0.0622,0.0637 1.98995,-0.0207 4.284,-0.18772 6.13906,-0.44688 9.60222,-1.67526 12.64282,-4.484396 2.09879,-1.93902 3.28282,-4.464317 3.28305,-7.002086 2.9e-4,-3.278455 -1.81183,-5.527066 -5.55612,-6.894449 -2.3381,-0.853858 -4.31798,-0.994129 -14.03158,-0.994129 h -9.70107 l -3.14878,3.619058 c -1.73183,1.990481 -4.10128,4.704992 -5.26544,6.032246 -1.16417,1.327253 -2.78685,3.181254 -3.60596,4.120004 -0.8191,0.938749 -2.84317,3.242612 -4.49791,5.119702 -1.65475,1.87708 -3.36582,3.84134 -3.80238,4.36501 -0.43656,0.52367 -2.67533,3.09553 -4.97504,5.715244 l -4.18129,4.7631 8.94379,0.18121 c 31.19349,0.63202 53.22943,3.31548 61.01415,7.43009 3.75113,1.98266 3.7041,4.07355 -0.13386,5.95158 -6.86249,3.35801 -23.38555,5.90412 -44.92504,6.92269 -6.02375,0.28485 -23.9872,0.52398 -29.10417,0.38743 z m 18.29437,-7.60129 c 4.51465,-0.86069 6.63877,-1.84279 6.79052,-3.13964 0.069,-0.58926 -0.11624,-0.81479 -1.18176,-1.43922 -2.66166,-1.55984 -11.26596,-2.72243 -17.42084,-2.35387 -9.40305,0.56307 -14.63769,2.5001 -12.66048,4.68489 0.92855,1.02604 4.64274,2.11102 8.82794,2.5788 3.16684,0.35396 13.16096,0.14253 15.64462,-0.33096 z"
       id="path836-7"
       inkscape:export-filename="/home/eduardo/Documentos/dvdanimation/images/dvd_yellow.png"
       inkscape:export-xdpi="500"
       inkscape:export-ydpi="500" />
    <path
       style="fill:#00ff00;stroke-width:0.264583"
       d="m -36.582809,211.30782 c -28.51589,-0.76095 -50.059098,-3.76618 -56.600592,-7.89564 -6.23431,-3.93555 3.29095,-8.05347 24.453722,-10.57174 9.42699,-1.12177 21.96375,-1.95832 30.42708,-2.03034 2.03729,-0.0173 3.78498,-0.0809 3.88376,-0.14123 0.0988,-0.0603 -0.21662,-1.26877 -0.70088,-2.68542 -0.48426,-1.41664 -2.6653,-7.81446 -4.84675,-14.21738 -6.48595,-19.03731 -5.95739,-17.61999 -6.40431,-17.17306 -0.16249,0.16248 -0.005,0.96729 0.43617,2.23132 0.57486,1.64644 0.68568,2.41032 0.66256,4.56677 -0.0382,3.56506 -0.86637,5.83589 -3.30264,9.05595 -1.93049,2.55157 -5.5452,5.43439 -9.02696,7.1992 -2.48581,1.25999 -6.73706,2.70947 -9.99988,3.40948 -3.16773,0.67961 -3.5302,0.69921 -15.256496,0.82507 -11.628786,0.1248 -12.005236,0.11324 -11.809826,-0.3627 0.20638,-0.50262 1.71908,-6.7441 4.175068,-17.22651 l 1.379297,-5.88697 h 6.850861 c 5.436145,0 6.799815,0.0683 6.603645,0.33072 -0.13597,0.18191 -0.38725,0.92605 -0.5584,1.65365 -0.17116,0.7276 -0.77526,3.28745 -1.34246,5.68854 -0.56719,2.40109 -1.17966,5.02047 -1.36103,5.82083 -0.18138,0.80037 -0.4373,1.66357 -0.56871,1.91823 -0.21444,0.41557 -0.0821,0.46211 1.29173,0.45411 7.431251,-0.0433 12.629321,-1.63983 15.831131,-4.86249 1.72415,-1.73539 2.52632,-3.17985 2.99717,-5.39701 0.75197,-3.54085 -0.83744,-6.31036 -4.58961,-7.99732 -2.58499,-1.1622 -4.29006,-1.31343 -14.808521,-1.31343 -9.159826,0 -9.719388,-0.0271 -9.547702,-0.46302 0.186187,-0.4727 1.269057,-4.79602 1.5905,-6.35 l 0.177869,-0.8599 1.831061,-0.003 c 1.007083,-0.002 11.534652,-0.003 23.394603,-0.003 11.85995,0 22.51145,10e-4 23.67001,0.003 l 2.10647,0.003 0.29523,1.12448 c 0.16237,0.61846 0.87221,2.91042 1.57742,5.09323 0.7052,2.18281 2.13241,6.64766 3.17158,9.92187 1.03916,3.27422 1.94372,6.11812 2.01013,6.31978 0.0679,0.20633 3.8374,-4.59506 8.62031,-10.98021 4.67477,-6.24077 8.52482,-11.37945 8.55567,-11.41929 0.0309,-0.0398 7.4847505,-0.0699 16.5642205,-0.0667 17.2312285,0.006 18.5008285,0.075 22.4508985,1.22053 8.81165,2.55547 13.61591,8.51766 12.4471,15.44713 -0.53799,3.18957 -2.01879,5.77351 -5.00827,8.7392 -5.16502,5.12394 -12.63218,8.34784 -21.413289,9.24504 -1.507,0.15398 -7.3123095,0.27996 -12.90067952,0.27996 -9.59565998,0 -10.14675998,-0.0257 -9.91068998,-0.46302 0.13748,-0.25466 0.79014,-2.78474 1.45036,-5.62239 0.66021,-2.83766 1.79889,-7.68355 2.53039,-10.76865 0.73151,-3.08509 1.33001,-5.8533 1.33001,-6.15156 0,-0.53279 0.12077,-0.54229 6.89478,-0.54229 4.27846,0 6.83594,0.0952 6.73972,0.2509 -0.24965,0.40394 -3.80628,15.48023 -3.682,15.60771 0.0622,0.0637 1.98995,-0.0207 4.2839995,-0.18772 6.13906,-0.44688 9.602219,-1.67526 12.642819,-4.48439 2.09879,-1.93902 3.28282,-4.46432 3.28305,-7.00209 2.9e-4,-3.27845 -1.81183,-5.52706 -5.55612,-6.89445 -2.3381,-0.85385 -4.317979,-0.99413 -14.0315785,-0.99413 h -9.70107 l -3.14878,3.61906 c -1.73183,1.99048 -4.1012805,4.70499 -5.2654405,6.03225 -1.16417,1.32725 -2.78685,3.18125 -3.60596,4.12 -0.8191,0.93875 -2.84317,3.24261 -4.49791,5.1197 -1.65475,1.87708 -3.36582,3.84134 -3.80238,4.36501 -0.43656,0.52367 -2.67533,3.09553 -4.97504,5.71525 l -4.18129,4.7631 8.94379,0.18121 c 31.1934905,0.63202 53.229429,3.31548 61.014149,7.43009 3.75113,1.98266 3.7041,4.07355 -0.13386,5.95158 -6.86249,3.35801 -23.385549,5.90412 -44.9250385,6.92269 -6.0237505,0.28485 -23.9872005,0.52398 -29.1041705,0.38743 z m 18.29437,-7.60129 c 4.51465,-0.86069 6.63877,-1.84279 6.79052,-3.13964 0.069,-0.58926 -0.11624,-0.81479 -1.18176,-1.43922 -2.66166,-1.55984 -11.26596,-2.72243 -17.42084,-2.35387 -9.40305,0.56307 -14.63769,2.5001 -12.66048,4.68489 0.92855,1.02604 4.64274,2.11102 8.82794,2.5788 3.16684,0.35396 13.16096,0.14253 15.64462,-0.33096 z"
       id="path836-5"
       inkscape:export-filename="/home/eduardo/Documentos/dvdanimation/images/dvd_green.png"
       inkscape:export-xdpi="500"
       inkscape:export-ydpi="500" />
    <path
       style="fill:#ff0000;stroke-width:0.264583"
       d="m 171.87363,222.2569 c -28.51589,-0.76095 -50.0591,-3.76618 -56.60059,-7.89564 -6.23431,-3.93555 3.29095,-8.05347 24.45372,-10.57174 9.42699,-1.12177 21.96375,-1.95832 30.42708,-2.03034 2.03729,-0.0173 3.78498,-0.0809 3.88376,-0.14123 0.0988,-0.0603 -0.21662,-1.26877 -0.70088,-2.68542 -0.48426,-1.41664 -2.6653,-7.81446 -4.84675,-14.21738 -6.48595,-19.03731 -5.95739,-17.61999 -6.40431,-17.17306 -0.16249,0.16248 -0.005,0.96729 0.43617,2.23132 0.57486,1.64644 0.68568,2.41032 0.66256,4.56677 -0.0382,3.56506 -0.86637,5.83589 -3.30264,9.05595 -1.93049,2.55157 -5.5452,5.43439 -9.02696,7.1992 -2.48581,1.25999 -6.73706,2.70947 -9.99988,3.40948 -3.16773,0.67961 -3.5302,0.69921 -15.25649,0.82507 -11.62879,0.1248 -12.00524,0.11324 -11.80982,-0.3627 0.20637,-0.50262 1.71907,-6.7441 4.17506,-17.22651 l 1.3793,-5.88697 h 6.85086 c 5.43614,0 6.79981,0.0683 6.60364,0.33072 -0.13597,0.18191 -0.38725,0.92605 -0.5584,1.65365 -0.17116,0.7276 -0.77526,3.28745 -1.34246,5.68854 -0.56719,2.40109 -1.17966,5.02047 -1.36103,5.82083 -0.18138,0.80037 -0.4373,1.66357 -0.56871,1.91823 -0.21444,0.41557 -0.0821,0.46211 1.29173,0.45411 7.43125,-0.0433 12.62932,-1.63983 15.83113,-4.86249 1.72415,-1.73539 2.52632,-3.17985 2.99717,-5.39701 0.75197,-3.54085 -0.83744,-6.31036 -4.58961,-7.99732 -2.58499,-1.1622 -4.29006,-1.31343 -14.80852,-1.31343 -9.15982,0 -9.71939,-0.0271 -9.5477,-0.46302 0.18619,-0.4727 1.26906,-4.79602 1.5905,-6.35 l 0.17787,-0.8599 1.83106,-0.003 c 1.00708,-0.002 11.53465,-0.003 23.3946,-0.003 11.85995,0 22.51145,0.001 23.67001,0.003 l 2.10647,0.003 0.29523,1.12448 c 0.16237,0.61847 0.87221,2.91042 1.57742,5.09323 0.7052,2.18281 2.13241,6.64766 3.17158,9.92187 1.03916,3.27422 1.94372,6.11812 2.01013,6.31978 0.0679,0.20633 3.8374,-4.59506 8.62031,-10.98021 4.67477,-6.24077 8.52482,-11.37945 8.55567,-11.41929 0.0309,-0.0398 7.48475,-0.0699 16.56422,-0.0667 17.23123,0.006 18.50083,0.075 22.4509,1.22054 8.81165,2.55546 13.61591,8.51765 12.4471,15.44712 -0.53799,3.18957 -2.01879,5.77351 -5.00827,8.7392 -5.16502,5.12394 -12.63218,8.34784 -21.41329,9.24504 -1.507,0.15398 -7.31231,0.27996 -12.90068,0.27996 -9.59566,0 -10.14676,-0.0257 -9.91069,-0.46302 0.13748,-0.25466 0.79014,-2.78474 1.45036,-5.62239 0.66021,-2.83766 1.79889,-7.68355 2.53039,-10.76865 0.73151,-3.08509 1.33001,-5.8533 1.33001,-6.15156 0,-0.53279 0.12077,-0.54229 6.89478,-0.54229 4.27846,0 6.83594,0.0952 6.73972,0.2509 -0.24965,0.40394 -3.80628,15.48023 -3.682,15.60771 0.0622,0.0637 1.98995,-0.0207 4.284,-0.18772 6.13906,-0.44688 9.60222,-1.67526 12.64282,-4.48439 2.09879,-1.93902 3.28282,-4.46432 3.28305,-7.00209 2.9e-4,-3.27845 -1.81183,-5.52706 -5.55612,-6.89445 -2.3381,-0.85385 -4.31798,-0.99413 -14.03158,-0.99413 h -9.70107 l -3.14878,3.61906 c -1.73183,1.99048 -4.10128,4.70499 -5.26544,6.03225 -1.16417,1.32725 -2.78685,3.18125 -3.60596,4.12 -0.8191,0.93875 -2.84317,3.24261 -4.49791,5.1197 -1.65475,1.87708 -3.36582,3.84134 -3.80238,4.36501 -0.43656,0.52367 -2.67533,3.09553 -4.97504,5.71525 l -4.18129,4.7631 8.94379,0.18121 c 31.19349,0.63202 53.22943,3.31548 61.01415,7.43009 3.75113,1.98266 3.7041,4.07355 -0.13386,5.95158 -6.86249,3.35801 -23.38555,5.90412 -44.92504,6.92269 -6.02375,0.28485 -23.9872,0.52398 -29.10417,0.38743 z m 18.29437,-7.60129 c 4.51465,-0.86069 6.63877,-1.84279 6.79052,-3.13964 0.069,-0.58926 -0.11624,-0.81479 -1.18176,-1.43922 -2.66166,-1.55984 -11.26596,-2.72243 -17.42084,-2.35387 -9.40305,0.56307 -14.63769,2.5001 -12.66048,4.68489 0.92855,1.02604 4.64274,2.11102 8.82794,2.5788 3.16684,0.35396 13.16096,0.14253 15.64462,-0.33096 z"
       id="path836-35"
       inkscape:export-filename="/home/eduardo/Documentos/dvdanimation/images/dvd_red.png"
       inkscape:export-xdpi="500"
       inkscape:export-ydpi="500" />
  </g>
</svg>
